<?xml version="1.0" encoding="iso-8859-1"?>
<!-- Uploaded to: SVG Repo, www.svgrepo.com, Generator: SVG Repo Mixer Tools -->
<svg fill="#000000" height="800px" width="800px" version="1.1" id="Layer_1" xmlns="http://www.w3.org/2000/svg" xmlns:xlink="http://www.w3.org/1999/xlink" 
	 viewBox="0 0 330 330" xml:space="preserve">
<g id="XMLID_232_">
	<path id="XMLID_233_" d="M15,285h300c8.284,0,15-6.716,15-15V60c0-8.284-6.716-15-15-15H15C6.716,45,0,51.716,0,60v210
		C0,278.284,6.716,285,15,285z M208.57,115H255c8.284,0,15,6.716,15,15s-6.716,15-15,15h-46.43c-8.284,0-15-6.716-15-15
		S200.286,115,208.57,115z M208.57,185H255c8.284,0,15,6.716,15,15s-6.716,15-15,15h-46.43c-8.284,0-15-6.716-15-15
		S200.286,185,208.57,185z M111.955,173.044c-20.221,0-36.615-16.393-36.615-36.614c0-20.223,16.395-36.614,36.615-36.614
		s36.615,16.392,36.615,36.614C148.57,156.651,132.176,173.044,111.955,173.044c31.455,0,56.955,25.498,56.955,56.956H55
		C55,198.542,80.5,173.044,111.955,173.044z"/>
</g>
</svg>